<?xml version="1.0" encoding="UTF-8"?>
<svg width="128pt" height="128pt" version="1.1" viewBox="0 0 128 128" xmlns="http://www.w3.org/2000/svg">
 <g>
  <rect width="128" height="128" fill="#fff"/>
  <path d="m92.617 27.684h-42l-15.234 15.238v57.395h57.238v-72.633zm-42.367 2.1523v12.719h-12.719zm41.109 69.223h-54.719v-55.246h14.867l0.003907-14.871h39.852z"/>
  <path d="m43.184 49.027h41.637v1.2578h-41.637z"/>
  <path d="m43.184 57.902h41.637v1.2578h-41.637z"/>
  <path d="m43.184 66.781h41.637v1.2578h-41.637z"/>
  <path d="m43.184 85.68h11.676v1.2578h-11.676z"/>
  <path d="m73.141 39.16h11.676v1.2578h-11.676z"/>
  <path d="m82.746 82.668h-2.7227v-5.4102h4.793v-1.2578h-4.793v-2.2266h-1.2578v2.2266h-2.1445c-0.61719 0-1.1523 0.10156-1.5938 0.29688-0.42188 0.19141-0.76562 0.45703-1.0273 0.78906-0.23828 0.30859-0.40234 0.65234-0.5 1.0508-0.10547 0.40234-0.15625 0.85938-0.15625 1.3672v0.92188c0 0.50391 0.054688 0.96484 0.15625 1.3633 0.10156 0.40234 0.26562 0.74609 0.50391 1.0547 0.25781 0.33203 0.60156 0.59766 1.0273 0.78906 0.4375 0.19922 0.97266 0.29688 1.5938 0.29688h2.1445v5.5586h-4.4492v1.2578h4.4492v2.2266h1.2578v-2.2266h2.7227c1.8867 0 2.5547-1.6367 2.5547-3.0391v-2c0-1.3984-0.67188-3.0391-2.5586-3.0391zm-6.125 0c-0.4375 0-0.80078-0.0625-1.0742-0.1875-0.23438-0.10547-0.41797-0.24609-0.55078-0.41406-0.12891-0.16797-0.21875-0.35938-0.28125-0.59375-0.078125-0.30078-0.11719-0.65234-0.11719-1.0508v-0.92188c0-0.39844 0.039063-0.75391 0.11719-1.0547 0.058594-0.23047 0.14844-0.42578 0.27734-0.58984 0.13281-0.16797 0.31641-0.30859 0.55078-0.41406 0.27734-0.125 0.63672-0.1875 1.0742-0.1875h2.1445v5.4102zm7.4219 5.043c0 0.66406-0.16797 1.7773-1.2969 1.7773h-2.7227v-5.5586h2.7227c1.125 0 1.2969 1.1133 1.2969 1.7812z"/>
 </g>
</svg>
