<?xml version="1.0" encoding="UTF-8"?>
<svg width="128pt" height="128pt" version="1.1" viewBox="0 0 128 128" xmlns="http://www.w3.org/2000/svg">
 <g>
  <rect width="128" height="128" fill="#fff"/>
  <path d="m98.797 75.57c-1.2852-2.1367-4.1406-1.7227-5.6406-1.1328l-12.113 4.1992c0.019531-0.16406 0.027343-0.32812 0.027343-0.49609 0-2.418-1.9688-4.3828-4.3828-4.3828h-0.007812-10.258c-3.5977-3.4609-8.7148-5.625-14.832-6.2695-3.2852-0.34766-6.0273-0.17578-7.4336-0.035156v-0.0625c0-1.3984-1.1406-2.5391-2.5391-2.5391h-11.168c-0.39844 0-0.74609 0.27344-0.84375 0.66016-1.7578 7.0352-0.45312 13.402 0.95703 17.508 1.5234 4.4414 3.4453 7.1992 3.5273 7.3164 0.16406 0.23047 0.42969 0.37109 0.71094 0.37109h6.6445c1.0898 0 1.7188-0.43359 2.0547-0.79688 0.66406-0.71875 0.66797-1.6367 0.65625-1.8711v-1.2656c3.8516 1.3125 16.109 5.457 20.559 6.5859 1.0078 0.25391 2.0312 0.35938 3.0391 0.35938 4.4727 0 8.5625-2.0625 8.7812-2.1758 1.9336-1.0273 18.91-10.051 19.684-10.539l0.074219-0.046875c0.45703-0.28906 1.4062-0.89062 2.0938-1.7266 0.97266-1.1836 1.1172-2.4805 0.41016-3.6602zm-67.656-8.9805h6.4805v22.371h-2.3477c-1.2266-1.9453-6.5977-11.32-4.1328-22.371zm11.078 22.141c-0.14844 0.15625-0.40625 0.23438-0.77344 0.23438h-2.0859v-22.371h2.2617c0.44141 0 0.80078 0.35938 0.80078 0.80078v20.664 0.054687c0 0.003907 0.011719 0.39062-0.20312 0.61719zm53.148-9.25-0.078126 0.050781c-0.57422 0.35938-12.012 6.4609-19.551 10.465-0.054687 0.027344-5.7617 2.8945-10.594 1.6719-4.5703-1.1562-18.008-5.7227-20.984-6.7344v-15.727c2.9727-0.30859 14.297-0.95703 21.293 6.0391 0.16406 0.16406 0.38672 0.25391 0.61719 0.25391h10.621 0.003906c1.457 0.003906 2.6406 1.1875 2.6406 2.6445 0 1.4609-1.1875 2.6445-2.6445 2.6445h-16.004c-0.48047 0-0.87109 0.38672-0.87109 0.86719s0.39062 0.87109 0.87109 0.87109h16.004c1.4297 0 2.7031-0.6875 3.5039-1.7539l13.551-4.6953c0.011718-0.003906 0.023437-0.007813 0.035156-0.011719 0.027344-0.011718 2.6875-1 3.5273 0.40234 0.33203 0.55078 0.49219 1.4688-1.9414 3.0117z"/>
  <path d="m79.289 34.289c-2.6484 0-5.1758 1.0234-7.0703 2.8359-1.8984-1.8125-4.4219-2.8359-7.0703-2.8359-5.6484 0-10.242 4.5938-10.242 10.242 0 1.25 0.22266 2.4727 0.66406 3.6328 0.007813 0.019532 0.015626 0.035157 0.023438 0.054688v0.003906c0 0.003906 0.003906 0.007813 0.003906 0.015625 0.003906 0.007813 0.007813 0.019531 0.011719 0.027344 0.25781 0.66016 0.58594 1.2969 0.98047 1.8984 1.8203 3.1484 6.1992 9.293 15.113 15.293 0.003906 0 0.003906 0.003907 0.007813 0.003907 0 0 0.003906 0 0.003906 0.003906 0.003906 0 0.007812 0.003906 0.007812 0.003906 0.03125 0.019531 0.0625 0.039062 0.097656 0.054688 0.011719 0.007812 0.027344 0.011718 0.039063 0.015624 0.023437 0.011719 0.050781 0.019532 0.074219 0.027344 0.015625 0.003906 0.03125 0.011719 0.046875 0.015625 0.023437 0.007813 0.050781 0.011719 0.074219 0.015625 0.015624 0.003906 0.03125 0.007813 0.046874 0.007813 0.035157 0.003906 0.074219 0.007812 0.10938 0.007812h0.007812 0.007812c0.035157 0 0.074219-0.003906 0.10938-0.007812 0.015624 0 0.027343-0.003907 0.042968-0.007813 0.023438-0.003906 0.050782-0.007812 0.074219-0.015625 0.015625-0.003906 0.03125-0.007812 0.046875-0.015625 0.023438-0.007812 0.050781-0.019531 0.074219-0.027344 0.011719-0.007812 0.023437-0.011718 0.039062-0.015624 0.03125-0.015626 0.066407-0.035157 0.097657-0.054688 0.003906 0 0.007812-0.003906 0.007812-0.003906l0.003906-0.003906c0.003906 0 0.003906-0.003907 0.007813-0.003907 8.9141-5.9961 13.289-12.145 15.113-15.293 0.39453-0.59766 0.72656-1.2383 0.98047-1.8984 0.007812-0.015625 0.015625-0.03125 0.019531-0.042969 0.007812-0.019531 0.015625-0.039062 0.023438-0.058594 0.44141-1.1602 0.66406-2.3789 0.66406-3.6289 0-5.6523-4.5938-10.246-10.242-10.246zm-7.0703 29.344c-8.3047-5.7031-12.379-11.441-14.082-14.391-0.003907-0.003907-0.003907-0.007813-0.007813-0.015626-0.003906-0.007812-0.007812-0.011718-0.011718-0.019531-0.45703-0.79688-0.72266-1.3594-0.84375-1.6328-0.003907-0.011719-0.007813-0.019531-0.015626-0.03125l-0.011718-0.023438c-0.35938-0.95312-0.54297-1.957-0.54297-2.9883 0-4.6562 3.7891-8.4453 8.4453-8.4453 2.457 0 4.7852 1.0664 6.3906 2.9258 0.003907 0.003906 0.007813 0.007812 0.011719 0.011719 0.011719 0.011718 0.019531 0.023437 0.03125 0.035156 0.011719 0.011718 0.023438 0.023437 0.035157 0.035156 0.003906 0.003906 0.007812 0.007812 0.011718 0.011719 0.003906 0.003906 0.011719 0.007812 0.015625 0.015625 0.015625 0.011718 0.027344 0.023437 0.042969 0.03125 0.011719 0.007812 0.019531 0.015625 0.03125 0.023437 0.015625 0.007813 0.027344 0.019531 0.042969 0.027344 0.011719 0.007813 0.023437 0.015625 0.035156 0.019531 0.015625 0.007813 0.027344 0.015625 0.042969 0.019532 0.015625 0.007812 0.027344 0.011718 0.042968 0.019531 0.011719 0.003906 0.023438 0.007812 0.039063 0.015625 0.015625 0.003906 0.03125 0.011718 0.046875 0.015625 0.011719 0.003906 0.023438 0.007812 0.035156 0.007812 0.015625 0.003907 0.03125 0.007813 0.046875 0.011719 0.011719 0.003906 0.023438 0.003906 0.035157 0.007812 0.015624 0.003907 0.03125 0.003907 0.050781 0.003907 0.015625 0 0.023437 0 0.039062 0.003906h0.046875 0.042969c0.015625 0 0.027344 0 0.042969-0.003906 0.015625 0 0.027344-0.003907 0.042968-0.003907 0.015626 0 0.027344-0.003906 0.042969-0.007812s0.027344-0.003906 0.042969-0.007812c0.015625-0.003907 0.027344-0.007813 0.042969-0.011719 0.015625-0.003907 0.027343-0.007813 0.042969-0.011719 0.015624-0.003906 0.027343-0.011719 0.042968-0.015625 0.011719-0.003906 0.023438-0.011719 0.039063-0.015625 0.015625-0.007812 0.027343-0.015625 0.042969-0.023438 0.011718-0.007812 0.023437-0.011718 0.03125-0.019531 0.015624-0.007812 0.03125-0.019531 0.046874-0.027343 0.011719-0.007813 0.019532-0.015626 0.03125-0.019532 0.015626-0.011718 0.027344-0.019531 0.042969-0.03125 0.003907-0.003906 0.011719-0.007812 0.015625-0.015625 0.003906-0.003906 0.007813-0.007812 0.015625-0.011719 0.011719-0.011718 0.023438-0.019531 0.035157-0.03125l0.046874-0.046874c1.6055-1.8594 3.9375-2.9258 6.3906-2.9258 4.6562 0 8.4453 3.7891 8.4453 8.4453 0 1.0312-0.18359 2.0352-0.54297 2.9922 0 0.003906-0.003906 0.003906-0.003906 0.007813v0.003906 0.003906c0-0.003906 0.003906-0.007812 0.003906-0.015625v0.003906l-0.007812 0.015626c-0.003907 0.011718-0.011719 0.023437-0.015625 0.035156-0.12109 0.27344-0.38672 0.83594-0.84375 1.6328-0.003906 0.007813-0.007813 0.015625-0.015625 0.023438-0.003907 0.003906-0.003907 0.007812-0.007813 0.011718-1.7188 2.9336-5.793 8.6719-14.098 14.375z"/>
 </g>
</svg>
