<?xml version="1.0" encoding="UTF-8"?>
<svg width="128pt" height="128pt" version="1.1" viewBox="0 0 128 128" xmlns="http://www.w3.org/2000/svg">
 <g>
  <rect width="128" height="128" fill="#fff"/>
  <path d="m73.215 92.957c-7-0.019531-13.98-0.72266-20.84-2.1016-0.60547-0.12109-1.2344-0.054688-1.8008 0.19531-1.6133 0.72266-3.5039 0.44141-4.8359-0.72656-1.3359-1.1641-1.8672-3-1.3633-4.6992l0.20312-0.69922c0.12891-0.46094 0.14453-0.95312 0.042969-1.4258-1.4805-7.1953-1.5156-14.613-0.10547-21.824 0.09375-0.45703 0.078125-0.92578-0.046875-1.3711l-0.35547-1.3086-0.003906-0.003906c-0.45312-1.6562 0.0625-3.4258 1.3398-4.5742 1.2773-1.1523 3.0938-1.4805 4.6914-0.85156l1.7422 0.69141h0.003907c13.285-2.4609 26.906-2.5234 40.219-0.1875 0.53906 0.10156 1.0938 0.050782 1.6055-0.14453l0.95312-0.37891v-0.003906c1.5859-0.62891 3.3945-0.3125 4.6758 0.82031 1.2773 1.1289 1.8164 2.8828 1.3906 4.5352l-0.42578 1.6523c-0.10156 0.39844-0.11719 0.8125-0.046876 1.2188 1.2422 7.1914 1.2578 14.543 0.046876 21.738-0.089844 0.41016-0.089844 0.83203 0 1.2422l0.40234 1.5508c0.42188 1.6484-0.11719 3.3984-1.3945 4.5234-1.2773 1.1289-3.0781 1.4453-4.6641 0.82422l-0.96094-0.37891c-0.51953-0.19531-1.0781-0.24219-1.6211-0.14062-6.2109 1.2109-12.523 1.8242-18.852 1.8281zm-21.461-3.7109c0.30078 0 0.59766 0.03125 0.89062 0.089844 12.902 2.6602 26.195 2.7578 39.137 0.29687 0.84375-0.16406 1.7148-0.085937 2.5156 0.22266l0.95312 0.37891v0.003906c1.0469 0.40625 2.2305 0.19922 3.0703-0.54297 0.84375-0.74219 1.1992-1.8906 0.92188-2.9766l-0.40234-1.5508c-0.15625-0.62109-0.17578-1.2695-0.0625-1.8984 1.1797-7.0234 1.1602-14.195-0.054688-21.215-0.10156-0.61719-0.074218-1.2539 0.078125-1.8594l0.42578-1.6523c0.28125-1.0859-0.074218-2.2383-0.91797-2.9844-0.83984-0.74219-2.0273-0.95312-3.0742-0.54297l-0.95312 0.37891v0.003907c-0.77734 0.30078-1.625 0.38672-2.4492 0.24609-13.281-2.332-26.875-2.2422-40.125 0.26172-0.29688 0.058594-0.60156-0.066406-0.77344-0.31641l-1.3477-0.52734h-0.003907c-1.0508-0.41016-2.2461-0.19531-3.0898 0.5625-0.83984 0.75391-1.1836 1.9219-0.88672 3.0117l0.36328 1.3008h0.003906c0.17969 0.68359 0.20312 1.3984 0.070313 2.0938-1.3867 7.0078-1.3672 14.223 0.058593 21.223 0.15234 0.71484 0.125 1.457-0.074218 2.1602l-0.20312 0.69922c-0.32031 1.1172 0.039062 2.3203 0.91797 3.082 0.87891 0.76172 2.1211 0.94141 3.1836 0.46875 0.57031-0.26953 1.1953-0.41016 1.8281-0.41797z"/>
  <path d="m38.227 83.379c-1.2539-0.003906-2.4531-0.51953-3.3164-1.4258-0.85156-0.89453-1.2969-2.1016-1.2227-3.3359v-0.72266 0.003907c0.019531-0.48828-0.074219-0.97266-0.28125-1.4102-3.0742-6.6641-4.793-13.867-5.0586-21.199-0.003906-0.47656-0.11719-0.94141-0.33594-1.3633l-0.65234-1.1797h0.003906c-0.83203-1.5156-0.73047-3.3672 0.25391-4.7812 0.98047-1.418 2.6797-2.1523 4.3789-1.8945l1.8438 0.26172v0.003907c12.379-5.4258 25.621-8.5977 39.113-9.3711 0.55469-0.023438 1.0898-0.20312 1.5508-0.51953l0.83594-0.58984c1.3984-0.97656 3.2305-1.0859 4.7344-0.28125 1.5078 0.80469 2.4336 2.3867 2.3945 4.0977v1.707-0.003906c-0.003906 0.41406 0.074219 0.82812 0.23438 1.2109 1.5156 3.6094 2.7188 7.3438 3.5977 11.16 0.050781 0.20703 0.019531 0.42578-0.09375 0.60547-0.11328 0.17969-0.29688 0.30469-0.50391 0.34766-0.19922 0.046875-0.41016 0.011719-0.58594-0.097657-0.17578-0.10937-0.29688-0.28516-0.34375-0.48437-0.85938-3.7305-2.0352-7.3789-3.5195-10.906-0.24219-0.58203-0.35938-1.207-0.34766-1.8359v-1.707 0.003906c0.007812-1.1094-0.59766-2.1289-1.5703-2.6562-0.97656-0.52734-2.1602-0.47266-3.082 0.14453l-0.84375 0.58984v-0.003906c-0.69141 0.46875-1.4961 0.73828-2.3242 0.77734-13.465 0.77734-26.68 3.9805-39.004 9.457-0.27734 0.12109-0.60156 0.070312-0.82812-0.13281l-1.4336-0.20312h-0.003906c-1.1211-0.16016-2.2383 0.32422-2.8828 1.2539-0.64844 0.92969-0.71094 2.1484-0.16797 3.1406l0.65234 1.1797h-0.003907c0.31641 0.625 0.48047 1.3164 0.48047 2.0156 0.25781 7.1367 1.9336 14.152 4.9219 20.641 0.3125 0.66016 0.46094 1.3867 0.42969 2.1172v0.72266-0.003906c-0.066406 0.8125 0.21484 1.6094 0.77344 2.2031 0.58594 0.58594 1.3789 0.91406 2.207 0.91406 0.65234 0 1.2891-0.21875 1.8008-0.62109 0.75-0.5625 1.6562-0.88281 2.5977-0.92188 0.77344 0 1.4961-0.0625 2.2383-0.10938 0.42578-0.027343 0.79297 0.29688 0.82031 0.72266 0.015625 0.20312-0.054688 0.40625-0.19141 0.5625-0.13672 0.15234-0.33203 0.24609-0.53516 0.25781-0.77344 0.054688-1.5117 0.085938-2.2773 0.11719h-0.003907c-0.62109 0.019531-1.2188 0.23437-1.7109 0.60937-0.78516 0.60547-1.7461 0.92969-2.7383 0.93359z"/>
 </g>
</svg>
